<svg xmlns="http://www.w3.org/2000/svg" viewBox="0 0 64 64">
  <rect width="64" height="64" rx="15" fill="#17151f"/>
  <path d="M16 28 13 12l13 8a28 28 0 0 1 12 0l13-8-3 16c5 9 1 24-16 24S11 37 16 28Z" fill="#efb366"/>
  <path d="M20 18l-3-2 1 7m26-5 3-2-1 7" stroke="#17151f" stroke-width="2" fill="none"/>
  <circle cx="25" cy="32" r="2.5" fill="#17151f"/>
  <circle cx="39" cy="32" r="2.5" fill="#17151f"/>
  <path d="m29 39 3 2 3-2m-3 2v4m-12-6-10-2m10 6-10 2m34-6 10-2m-10 6 10 2" stroke="#17151f" stroke-width="2" stroke-linecap="round" fill="none"/>
</svg>
